<svg width="62" height="62" viewBox="0 0 62 62" fill="none" xmlns="http://www.w3.org/2000/svg">
<g filter="url(#filter0_dd_47_1558)">
<g clip-path="url(#clip0_47_1558)">
<path d="M11 23C11 14.1634 18.1634 7 27 7H35C43.8366 7 51 14.1634 51 23V31C51 39.8366 43.8366 47 35 47H27C18.1634 47 11 39.8366 11 31V23Z" fill="#0B1EFE"/>
</g>
</g>
<rect width="21.4286" height="21.4286" transform="translate(20.2856 14.1429)" fill="#0B1EFE"/>
<path d="M30.9998 19.5C30.5088 19.5 30.0884 19.3251 29.7387 18.9754C29.389 18.6257 29.2141 18.2054 29.2141 17.7143C29.2141 17.2232 29.389 16.8028 29.7387 16.4531C30.0884 16.1034 30.5088 15.9286 30.9998 15.9286C31.4909 15.9286 31.9113 16.1034 32.261 16.4531C32.6107 16.8028 32.7855 17.2232 32.7855 17.7143C32.7855 18.2054 32.6107 18.6257 32.261 18.9754C31.9113 19.3251 31.4909 19.5 30.9998 19.5ZM28.3213 33.7857V22.1786H22.9641V20.3929H39.0355V22.1786H33.6784V33.7857H31.8927V28.4286H30.107V33.7857H28.3213Z" fill="#E6E6E6"/>
<defs>
<filter id="filter0_dd_47_1558" x="0" y="0" width="62" height="62" filterUnits="userSpaceOnUse" color-interpolation-filters="sRGB">
<feFlood flood-opacity="0" result="BackgroundImageFix"/>
<feColorMatrix in="SourceAlpha" type="matrix" values="0 0 0 0 0 0 0 0 0 0 0 0 0 0 0 0 0 0 127 0" result="hardAlpha"/>
<feOffset dy="1"/>
<feGaussianBlur stdDeviation="1.5"/>
<feColorMatrix type="matrix" values="0 0 0 0 0 0 0 0 0 0 0 0 0 0 0 0 0 0 0.3 0"/>
<feBlend mode="normal" in2="BackgroundImageFix" result="effect1_dropShadow_47_1558"/>
<feColorMatrix in="SourceAlpha" type="matrix" values="0 0 0 0 0 0 0 0 0 0 0 0 0 0 0 0 0 0 127 0" result="hardAlpha"/>
<feMorphology radius="3" operator="dilate" in="SourceAlpha" result="effect2_dropShadow_47_1558"/>
<feOffset dy="4"/>
<feGaussianBlur stdDeviation="4"/>
<feColorMatrix type="matrix" values="0 0 0 0 0 0 0 0 0 0 0 0 0 0 0 0 0 0 0.15 0"/>
<feBlend mode="normal" in2="effect1_dropShadow_47_1558" result="effect2_dropShadow_47_1558"/>
<feBlend mode="normal" in="SourceGraphic" in2="effect2_dropShadow_47_1558" result="shape"/>
</filter>
<clipPath id="clip0_47_1558">
<path d="M11 23C11 14.1634 18.1634 7 27 7H35C43.8366 7 51 14.1634 51 23V31C51 39.8366 43.8366 47 35 47H27C18.1634 47 11 39.8366 11 31V23Z" fill="white"/>
</clipPath>
</defs>
</svg>
