<svg width="69" height="25" viewBox="0 0 69 25" fill="none" xmlns="http://www.w3.org/2000/svg">
<path d="M14.9356 4.98685V9.65954H13.1129V7.2085L12.5419 6.58265H5.78475V13.9632H10.5996L11.0259 13.5368V12.34H12.8486V17.2121H11.0259V16.0153L10.5996 15.559H5.78475V23.3385H12.5669L13.1379 22.7675V19.9748H14.9606V24.9343H0V23.3385H2.59316V6.58265H0V4.98685H14.9356ZM9.97371 0H12.5419V2.0496L5.3509 4.07176L4.98685 3.39853L9.97371 0Z" fill="#E6E6E6"/>
<path d="M19.9478 6.7896V5.21126H22.8775C23.7228 5.21126 24.6379 5.17386 25.6253 5.09905C26.6127 5.02425 27.5652 4.98685 28.4852 4.98685C29.5175 4.98685 30.5324 5.08658 31.5272 5.28357C32.5221 5.48055 33.4048 5.81467 34.1752 6.28343C34.9457 6.7522 35.5691 7.37805 36.0478 8.156C36.5266 8.93644 36.7659 9.90888 36.7659 11.0708C36.7659 12.1804 36.5216 13.1329 36.0329 13.9308C35.5441 14.7287 34.9008 15.382 34.1029 15.8881C33.305 16.3943 32.385 16.7708 31.3427 17.0152C30.3005 17.2595 29.2258 17.3817 28.1162 17.3817C28.004 17.3817 27.8345 17.3817 27.6101 17.3817C27.3856 17.3817 27.1463 17.3767 26.892 17.3667C26.6376 17.3567 26.3983 17.3443 26.1738 17.3243C25.9494 17.3069 25.7799 17.2869 25.6677 17.267V23.3534H28.4852V24.9318H19.9478V23.3534H22.511V6.7896H19.9478ZM25.6677 15.6637C25.7624 15.7011 25.907 15.726 26.104 15.7335C26.301 15.7435 26.513 15.7585 26.7374 15.7759C26.9618 15.7959 27.1837 15.8033 27.4006 15.8033C27.615 15.8033 27.7821 15.8033 27.8943 15.8033C28.6274 15.8033 29.3181 15.7136 29.9663 15.5366C30.6146 15.3595 31.1831 15.0802 31.6718 14.7062C32.1606 14.3297 32.5445 13.8435 32.8263 13.2401C33.1081 12.6392 33.2477 11.9161 33.2477 11.0708C33.2477 9.52988 32.764 8.39537 31.7965 7.6623C30.8291 6.92924 29.5101 6.56269 27.837 6.56269C27.3308 6.56269 26.9069 6.57767 26.5703 6.60509C26.2312 6.63252 25.932 6.6749 25.6677 6.73225V15.6637Z" fill="#E6E6E6"/>
<path d="M49.8687 24.9343H39.895V23.3385H43.2861V6.58265H39.895V4.98685H49.8687V6.58265H46.4777V23.3385H49.8687V24.9343Z" fill="#E6E6E6"/>
<path d="M56.6184 21.9023L57.1146 22.563C57.4462 22.8024 57.9 22.9994 58.4785 23.1565C59.0569 23.3135 59.6953 23.3908 60.3934 23.3908C61.0542 23.3908 61.6651 23.321 62.2261 23.1839C62.7871 23.0467 63.2783 22.8398 63.6997 22.563C64.1211 22.2863 64.4527 21.9397 64.6921 21.5158C64.9315 21.0944 65.0511 20.5882 65.0511 19.9998C65.0511 19.2468 64.7993 18.6234 64.2931 18.1272C63.787 17.631 63.1586 17.1897 62.4056 16.8057C61.6526 16.4192 60.8348 16.0427 59.9546 15.6762C59.0719 15.3096 58.2566 14.8783 57.5035 14.3821C56.7505 13.8859 56.1222 13.29 55.616 12.5918C55.1098 11.8936 54.858 11.0135 54.858 9.94628C54.858 8.38539 55.4515 7.1686 56.6358 6.2959C57.8202 5.4232 59.4235 4.98685 61.4432 4.98685C62.7098 4.98685 63.8019 5.06914 64.722 5.23371C65.6396 5.39828 66.42 5.62018 67.0633 5.89446V10.6345H65.3005V7.65981L64.8592 6.97162C64.5101 6.82451 64.0039 6.71479 63.3432 6.63999C62.6824 6.56768 62.0291 6.53028 61.3858 6.53028C60.2837 6.53028 59.421 6.78212 58.7951 7.28829C58.1718 7.79446 57.8576 8.50508 57.8576 9.42266C57.8576 10.1757 58.1094 10.804 58.6156 11.3102C59.1218 11.8164 59.7501 12.2702 60.5031 12.6741C61.2561 13.078 62.074 13.4695 62.9542 13.846C63.8369 14.2225 64.6522 14.6539 65.4052 15.1401C66.1582 15.6263 66.7866 16.2098 67.2927 16.8905C67.7964 17.5712 68.0507 18.4165 68.0507 19.4263C68.0507 21.2091 67.3626 22.573 65.9837 23.518C64.6073 24.4655 62.7223 24.9368 60.3361 24.9368C59.032 24.9368 57.9025 24.7996 56.9475 24.5229C55.9925 24.2486 55.2944 23.9544 54.853 23.6402V18.6259H56.6159V21.9023H56.6184Z" fill="#E6E6E6"/>
</svg>
