<svg width="67" height="63" viewBox="0 0 67 63" fill="none" xmlns="http://www.w3.org/2000/svg">
<path d="M47.8571 0H28.7143H9.57143V18.8981V37.7962V52.1761C8.94131 53.2738 7.74807 54.0171 6.38095 54.0171C5.23876 54.0171 4.28959 53.1005 4.28959 51.9729C4.28959 51.2926 4.83995 50.732 5.52431 50.7115C5.53707 50.7099 5.54983 50.7084 5.5626 50.7084C5.82581 50.7084 6.03957 50.9194 6.03957 51.1792C6.03957 51.4391 5.82581 51.6501 5.5626 51.6501C5.38552 51.6501 5.24036 51.7997 5.24036 51.9761C5.24036 52.5856 5.76359 53.0816 6.38095 53.0816C7.87888 53.0816 9.09605 51.8785 9.09605 50.4013C9.09605 48.9241 7.87888 47.2516 6.38095 47.2516C2.85547 47.2516 0 50.0721 0 53.5509C0 58.77 4.28481 63 9.57143 63C14.791 63 19.4268 60.5243 22.3365 56.6975H28.7143H41.4762V37.7994H47.8571H54.2381V18.9013H67V0.00314976H47.8571V0Z" fill="#0B1EFE"/>
</svg>
