<svg width="175" height="233" viewBox="0 0 175 233" fill="none" xmlns="http://www.w3.org/2000/svg">
<path d="M49.8041 199.167V206.943H46.7709V202.864L45.8207 201.823H34.5761V214.104H42.5884L43.298 213.395V211.403H46.3311V219.511H43.298V217.519L42.5884 216.76H34.5761V229.706H45.8622L46.8124 228.756V224.108H49.8456V232.361H24.9497V229.706H29.265V201.823H24.9497V199.167H49.8041ZM41.547 190.868H45.8207V194.279L33.8541 197.644L33.2483 196.524L41.547 190.868Z" fill="#E6E6E6"/>
<path d="M58.1443 202.167V199.54H63.0197C64.4263 199.54 65.9491 199.478 67.5923 199.354C69.2354 199.229 70.8204 199.167 72.3515 199.167C74.0693 199.167 75.7581 199.333 77.4137 199.661C79.0693 199.989 80.5381 200.545 81.8203 201.325C83.1024 202.105 84.1397 203.146 84.9364 204.441C85.7331 205.739 86.1314 207.358 86.1314 209.291C86.1314 211.138 85.7248 212.723 84.9115 214.051C84.0982 215.378 83.0277 216.465 81.6999 217.308C80.3721 218.15 78.8411 218.777 77.1066 219.183C75.3722 219.59 73.5839 219.793 71.7374 219.793C71.5507 219.793 71.2686 219.793 70.8951 219.793C70.5217 219.793 70.1234 219.785 69.7001 219.768C69.2769 219.752 68.8786 219.731 68.5051 219.698C68.1317 219.669 67.8495 219.636 67.6628 219.602V229.731H72.3515V232.357H58.1443V229.731H62.4098V202.167H58.1443ZM67.6628 216.934C67.8205 216.997 68.0611 217.038 68.3889 217.051C68.7167 217.067 69.0694 217.092 69.4429 217.121C69.8163 217.154 70.1856 217.167 70.5466 217.167C70.9034 217.167 71.1814 217.167 71.3681 217.167C72.588 217.167 73.7374 217.017 74.8162 216.723C75.895 216.428 76.8411 215.963 77.6543 215.341C78.4676 214.714 79.1066 213.905 79.5755 212.901C80.0444 211.901 80.2767 210.698 80.2767 209.291C80.2767 206.727 79.4717 204.839 77.8618 203.619C76.2519 202.399 74.0569 201.789 71.2727 201.789C70.4304 201.789 69.725 201.814 69.1649 201.86C68.6006 201.906 68.1026 201.976 67.6628 202.071V216.934Z" fill="#E6E6E6"/>
<path d="M107.936 232.361H91.3389V229.706H96.9819V201.823H91.3389V199.167H107.936V201.823H102.293V229.706H107.936V232.361Z" fill="#E6E6E6"/>
<path d="M119.168 227.316L119.994 228.415C120.546 228.814 121.301 229.142 122.264 229.403C123.226 229.664 124.288 229.793 125.45 229.793C126.55 229.793 127.566 229.677 128.5 229.449C129.434 229.22 130.251 228.876 130.952 228.415C131.653 227.955 132.205 227.378 132.604 226.673C133.002 225.972 133.201 225.129 133.201 224.15C133.201 222.897 132.782 221.86 131.94 221.034C131.097 220.208 130.052 219.474 128.799 218.835C127.546 218.192 126.185 217.565 124.72 216.955C123.251 216.345 121.894 215.627 120.641 214.802C119.388 213.976 118.342 212.984 117.5 211.822C116.658 210.661 116.239 209.196 116.239 207.42C116.239 204.822 117.226 202.798 119.197 201.345C121.168 199.893 123.836 199.167 127.197 199.167C129.305 199.167 131.122 199.304 132.653 199.578C134.18 199.852 135.479 200.221 136.55 200.677V208.565H133.616V203.615L132.882 202.47C132.301 202.225 131.458 202.042 130.359 201.918C129.259 201.798 128.172 201.735 127.102 201.735C125.268 201.735 123.832 202.154 122.791 202.997C121.753 203.839 121.23 205.022 121.23 206.549C121.23 207.802 121.649 208.847 122.492 209.69C123.334 210.532 124.38 211.287 125.633 211.959C126.886 212.631 128.247 213.283 129.712 213.909C131.18 214.536 132.537 215.254 133.79 216.063C135.043 216.872 136.089 217.843 136.931 218.976C137.77 220.109 138.193 221.515 138.193 223.196C138.193 226.162 137.048 228.432 134.753 230.005C132.463 231.581 129.326 232.366 125.355 232.366C123.185 232.366 121.305 232.137 119.716 231.677C118.127 231.22 116.965 230.731 116.23 230.208V221.864H119.164V227.316H119.168Z" fill="#E6E6E6"/>
<path d="M124.479 0H74.6876H24.8959V49.7917V99.5835V137.471C23.2569 140.363 20.1532 142.321 16.5972 142.321C13.6263 142.321 11.1575 139.906 11.1575 136.936C11.1575 135.143 12.589 133.666 14.3691 133.612C14.4023 133.608 14.4355 133.604 14.4687 133.604C15.1533 133.604 15.7093 134.16 15.7093 134.844C15.7093 135.529 15.1533 136.085 14.4687 136.085C14.0081 136.085 13.6305 136.479 13.6305 136.944C13.6305 138.55 14.9915 139.857 16.5972 139.857C20.4935 139.857 23.6594 136.687 23.6594 132.795C23.6594 128.903 20.4935 124.496 16.5972 124.496C7.42727 124.496 0 131.927 0 141.093C0 154.844 11.145 165.989 24.8959 165.989C38.4724 165.989 50.5303 159.466 58.0987 149.384H74.6876H107.882V99.5918H124.479H141.077V49.8H174.271V0.00829881H124.479V0Z" fill="#0B1EFE"/>
</svg>
